<?xml version="1.0"?>
<svg xmlns:rdf="http://www.w3.org/1999/02/22-rdf-syntax-ns#" xmlns="http://www.w3.org/2000/svg" xmlns:cc="http://web.resource.org/cc/" xmlns:xlink="http://www.w3.org/1999/xlink" xmlns:dc="http://purl.org/dc/elements/1.1/" xmlns:svg="http://www.w3.org/2000/svg" id="brochure-1-1_xA0_Image_1_" xml:space="preserve" viewBox="0 0 274.03 235.295" version="1.1" x="0px" y="0px" enable-background="new 0 0 274.03 235.295">
<g clip-rule="evenodd" fill-rule="evenodd">
	<path d="m68.583 19.179c1.854 0.76 0.584 3.228 0.581 4.647-0.046 18.779 3.757 41.598 2.904 66.799-0.278 8.227-0.761 16.362-1.162 24.396-0.386 7.737 0.032 16.098-3.485 22.654-3.258-1.806-1.33-6.633-1.162-9.294 0.901-14.242 2.266-31.684 2.324-49.373 0.068-20.874-3.202-41.255-2.324-58.086 0.205-0.763 1.022-0.914 1.162-1.743 0.387 0.001 0.774 0.001 1.162 0.001z"/>
	<path d="m173.14 24.407c2.231 1.095-1.31 5.889-3.485 6.389 1.13-2.153 2.84-3.734 3.48-6.389z"/>
	<path d="m55.803 25.568h1.162c2.46-0.016 1.667 3.514 1.743 4.647 0.462 6.971-0.393 14.004 0 20.911 0.479 8.41 0.943 19.444 2.324 23.815 0.043 0.136-0.244 0.621 0.581 1.162-0.629 7.105 1.882 13.648 0 19.749-1.708-1.077-1.575-2.323-1.743-3.485-0.57-3.972-0.14-8.371-0.581-12.779-0.861-8.614-2.796-18.868-2.904-29.043-0.014-1.292 0.641-2.717 0.581-4.066-0.073-1.645-1.057-2.908-1.162-4.647-0.293-4.867 1.798-11.595-0.001-16.264z"/>
	<path d="m227.16 33.701c0.426-1.035 1.057-0.084 1.743 0 1.309 17.828 1.887 36.633 2.323 52.858 0.783 29.131 5.821 57.792 2.904 90.034 3.459 1.274 5.145-3.06 7.551-4.647-0.683-38.124-2.03-85.539-2.904-126.63 5.117 1.067 3.85 5.738 4.066 11.617 0.562 15.247-0.738 41.603 0 63.895 0.246 7.422 0.559 14.741 0.581 21.492 0.022 6.827 0.753 13.145 0.581 18.588-0.234 7.414-3.248 13.366 3.484 16.845 3.629 0.809 4.77-4.039 9.875-3.485 2.267 0.057 0.65 3.997 2.904 4.066 4.621-0.219 6.24-3.44 10.456-4.066 2.184 0.838-5.665 5.815-8.713 5.81-2.865-0.006-3.676-1.264-5.81-2.324-4.211 2.219-11.764 2.593-14.521-1.161-2.133 0.577-3.281 2.14-5.809 2.323-6.587-2.362-13.536-0.824-20.33-4.647 0.729-3.063 4.01-0.147 6.39-1.742 2.389 0.129 1.265 3.77 4.066 3.485 3.054 0.344 4.04-1.381 6.39-1.743 1.204-12.393 0.24-27.243-0.581-40.079-2.074-32.423-5.061-67.396-4.066-99.327 0.09-0.666-0.13-1.024-0.58-1.152z"/>
	<path d="m253.88 62.744c0.763 0.205 0.914 1.022 1.743 1.162 4.23 35.644 4.612 70.233 1.742 105.72-1.366-15.646-0.034-32.099 0-48.792 0.03-14.418-1.148-28.28-2.904-44.726-0.49-4.56 0.41-8.752-0.58-13.37z"/>
	<path d="m271.88 99.919c2.355 5.608 1.351 11.016 1.743 18.587-1.72-2.64-0.93-13.72-1.74-18.591z"/>
	<path d="m273.05 119.67c1.377 3.129 1.046 3.753 0.581 6.97-1.85-1.58-0.06-3.68-0.58-6.97z"/>
	<path d="m273.05 127.8c1.667 1.148-0.201 3.626 0 5.228-1.67-1.15 0.2-3.63 0-5.23z"/>
	<path d="m271.88 135.93c2.371-0.176 0.311 1.213 0.581 2.324-0.78-0.17-0.48-1.45-0.58-2.32z"/>
	<path d="m271.88 140c0.036-0.041-0.04-0.573 0-0.581 2.79-0.5-2.75 3.73 0 0.58z"/>
	<path d="m104.02 140h1.162v1.162h-1.162v-1.16z"/>
	<path d="m137.12 140.58c-0.098-1.26 2.06-0.264 2.904-0.581 0.11 1.26-2.05 0.26-2.9 0.58z"/>
	<path d="m90.655 151.03c2.165 1.64 1.195 5.81 1.162 8.133-0.03 2.093 1.308 6.716-1.743 7.551 0.87-5.71-0.157-9.27 0.581-15.68z"/>
	<path d="m180.69 152.2h1.743c-1.313 6.938 0.728 12.146-1.162 19.168-2.39-1.464-0.656-6.381-0.581-9.293 0.09-3.51-0.5-6.85 0-9.88z"/>
	<path d="m176.62 153.94c0.675-0.094 1.033 0.129 1.161 0.581 0.135 4.769 0.774 11.248-0.581 16.265-2.277-0.735-0.608-3.709-0.58-5.229 0.06-3.34-0.16-7.15 0-11.61z"/>
	<path d="m87.751 160.33c-0.688 3.186 1.429 9.174-1.162 10.456-0.232-3.37-1.577-8.23 1.162-10.46z"/>
	<path d="m98.206 166.14h1.743c-1.394 2.315 1.444 5.286-1.743 5.809v-5.81z"/>
	<path d="m92.979 170.2c1.166-0.198 1.817 0.118 1.743 1.161h-1.743v-1.16z"/>
	<path d="m73.81 228.29c-0.396-10.664 0.211-23.381-0.581-34.852-0.159-2.309-0.69-4.226-0.581-6.39 0.078-1.547 1.273-3.692 1.162-5.228-0.287-3.94-3.567-6.439-4.066-9.875 3.963-0.284 5.75 1.607 9.293 1.743-1.028-2.584-4.11-1.2-6.389-1.743-5.076-1.207-14.321-3.853-21.492-4.646 3.2 3.577 10.798 2.755 16.264 4.065 0.373 2.116-2.767 0.719-2.904 2.324 2.884 2.537 8.298 2.545 8.132 8.132-1.367 1.538-5.174 0.634-6.39 2.323-2.231 9.607-0.23 26.935-2.323 33.69-2.283 1.249-4.413 0.09-6.39-0.581 0.028-11.586-0.536-20.79-0.581-30.205-2.167-2.673-7.799-1.882-11.036-3.485-2.978 6.577 0.869 20.447-2.323 30.205-1.367 0.799-4.513-0.639-6.39-1.162-1.262-11.165 1.234-20.255-1.743-34.271-1.783-0.733-3.224-1.81-4.066-3.485 3.792-6.47 15.027-5.497 20.33-10.455 0.238-1.399-1.061-1.263-0.581-2.904-4.891-1.129-6.051-3.287-12.198-2.323-2.467-1.493-2.565-3.421-4.647-4.066-3.68-1.142-7.338 2.041-11.037 1.742-2.545-0.205-4.1-2.733-6.389-2.904-2.987-0.223-3.925 2.552-6.971 1.743-2.503 0.567-1.69-2.183-3.485-2.323-2.241 0.652-2.684 1.373-5.228 0.58-1.988-7.457-1.166-15.375 0-23.234 3.147 5.037-1.528 18.233 2.904 22.073 3.693-1.712 2.336-6.351 2.324-9.294-0.037-8.549-0.903-19.301-0.581-30.205 0.155-5.237-1.769-9.976 1.162-13.94 1.384 3.189 0.612 6.621 0.581 9.875-0.114 12.088 1.74 24.719 1.162 36.013-0.15 2.942-1.025 5.684 0.581 8.133 0.675-0.095 1.033 0.128 1.162 0.58 3.582 0.484 4.531-1.664 7.551-1.742-0.167-17.977-1.414-42.347-1.743-59.248-0.197-10.126-1.126-18.638 3.485-24.977 1.366 10.582-0.574 27.091 0 41.241 0.046 1.147 1.141 2.431 1.162 3.485 0.201 10.078-2.802 25.904-0.581 37.756 1.439 7.678 10.203 1.939 15.103 2.323-2.511-32.47-0.937-62.471-1.743-91.776-0.176-6.414-2.007-11.141 1.743-15.103 2.057 0.513 1.73 3.875 1.743 5.228 0.274 30.721-0.955 75.583 1.162 103.97 1.017 2.633 5.222 2.596 8.132 1.742 0.547-18.278-1.551-37.688-2.324-56.343-0.549-13.255-1.397-28.124-0.581-38.917 0.34-4.495 0.68-11.159 0.581-16.845-0.058-3.29-2.166-6.569 1.743-8.713 0.865 41.771 1.293 82.049 4.066 122.56 3.56 0.461 3.217-2.979 5.809-3.485 8.571 1.697 11.75-5.635 10.456-13.94 2.576-2.266 7.556-2.126 10.456-4.066-1.752-9.475-0.77-21.878-0.581-34.271 0.09-5.874 0.224-11.631-1.162-15.684 2.112-15.882 0.887-38.042 0.581-53.439-0.045-2.289 0.059-5.217 0-8.132-0.066-3.297-2.421-8.342 1.162-11.036 2.191 0.714 1.111 3.689 1.162 5.228 0.273 8.355 0.843 17.633 0.581 26.72 1.695-1.497 10.864-1.62 14.521 0 2.617-9.209-0.056-23.063 0.581-34.271 0.081-1.424-1.032-5.169 1.742-5.228 2.303 1.358 0.923 5.999 1.162 9.293 0.695 9.575 0.705 19.929-0.581 30.205 2.7 0.979 5.702 1.656 8.713 2.323-0.876-5.856 0.079-13.728 0-23.234-0.037-4.499-0.812-8.876-0.581-14.521 0.092-2.238-0.965-5.391 1.162-6.97 2.499 0.558 1.037 3.63 1.162 5.228 0.718 9.186 0.191 25.112 0.581 33.109 0.172 3.521 0.513 8.115 3.485 9.875 1.904-5.697 1.483-17.847 1.162-25.558-0.264-6.346-1.582-14.482-1.162-20.33 0.116-1.612-0.446-4.334 2.323-4.066 2.241 1.04 1.086 4.118 1.162 5.809 0.618 13.739 0.392 30.291 1.162 45.888 3.381 3.783 8.178 6.149 12.198 9.293 0.895-21.559 0.146-39.775-0.581-63.313 3.129-0.261 3.201 4.263 3.485 6.389 0.277 2.069-0.087 5.063 0 6.97 0.735 16.204 0.754 36.221 0.581 52.278 2.104 2.349 5.545 3.361 8.132 5.228 1.718-4.842 0.448-10.17 0.581-16.845 0.167-8.407 1.613-17.852 2.324-27.301 0.728-9.682-1.019-19.293 1.162-26.719 5.365 1.32-0.088 11.932 2.904 15.102-2.209 20.385-4.323 41.978-2.904 57.505 2.488 2.74 7.43 3.026 11.036 4.647 0.245-24.454 1.128-50.465 1.162-70.865 0.002-1.064-1.693-3.95 0.581-4.647 2.458-0.124 2.235 4.421 2.323 6.39 0.344 7.711-0.886 17.954-1.162 24.977-0.678 17.232 1.169 32.647 0 44.726 1.455 1.45 3.625 2.185 5.809 2.905-0.044-24.789-1.978-53.104-1.742-78.417 5.04 1.5 2.844 8.635 2.904 12.779 0.095 6.484 0.43 12.368 0.581 19.168 0.373 16.813 1.246 33.653 1.742 47.631 4.218 2.172 9.199 3.58 13.36 5.809 0.159-24.143 2.108-49.346 1.742-80.159 4.894 0.839 3.477 8.187 3.485 12.779 0.027 15.277 0.114 27.456-1.743 45.307-0.481 4.631-0.604 9.682-0.58 13.94 0.021 3.915-0.771 8.95 2.323 11.037 3.671-17.672 2.683-41.935 1.742-62.152-0.155-3.345-0.07-7.058 0-10.456 0.051-2.417-1.393-6.862 1.743-8.132 2.846 1.402 1.476 6.404 1.742 11.617 0.663 12.983 2.399 28.193 1.162 44.726-0.647 8.65-3.262 17.042-1.743 26.139 3.436 1.986 6.323 4.52 9.875 6.389-1.04-27.484 1.19-53.984-1.162-84.225 5.696 0.459 3.924 7.471 4.066 11.617 0.603 17.533 0.302 52.812 0 74.35 7.465 5.508 15.218 10.727 19.168 19.75 1.838-30.989-3.309-68.682-1.161-92.938 3.881 1.256 2.271 6.218 2.323 8.713 0.151 7.277-0.021 13.904 0 20.33 0.034 11.024 0.862 26.87 1.162 42.403 0.397 20.639 0.672 43.682 1.161 62.733-3.115 6.25-11.687 6.634-13.94 13.94-0.718 2.325 0.082 5.673 0 8.132-0.173 5.198-0.807 11.053-1.162 16.846-0.372 6.069-1.877 12.1-1.742 17.426 0.032 1.288-0.777 3.089 1.161 4.065-3.862 1.172-1.96 8.108-8.132 6.971-2.11-1.832 1.488-4.411-2.904-5.228 1.202-0.928 0.715-3.545 1.743-4.647-2.367-13.694-2.563-27.812-4.647-40.66 0.019-1.761-2.923-0.562-2.904-2.323-8.87 1.721-21.397 1.626-29.624-0.581-4.91 4.189-9.265 8.936-14.521 12.779-0.29 6.198-2.945 12.229 0 16.845-4.109-0.043-1.87 6.262-6.97 5.228-2.662-1.298-0.194-5.117-4.066-5.809 1.652-1.445 2.013-4.183 1.743-7.551-4.54 3.785-10.15 6.502-12.779 12.198-0.152 2.476 4.747-0.101 3.485 3.484-0.522 3.128-4.678 3.14-6.39 3.485-6.086 2.046-10.794 5.47-18.006 6.39-0.46-3.978 1.69-3.299 3.485-5.809-0.73-0.985-5.623 3.338-6.97 0-1.732-3.114 4.633-2.563 6.97-3.485 0.184-14.23-0.398-24.32 0-36.594-1.214 0.245-1.538-0.398-2.323-0.581-4.113 2.078-2.166 7.867-2.324 12.198-0.148 4.063-0.242 8.824-2.323 11.617-0.844-0.318-3.002 0.679-2.904-0.581-1.681-0.769-1.559-3.7-1.743-5.228-0.705-5.86 0.108-12.521 0-17.426-1.93-0.896-3.586 0.736-5.809 1.161 0.15 6.524-1.266 11.922-0.581 18.007-0.706 1.618-2.447 2.2-4.066 2.904-0.633 8.179-2.087 19.628-2.904 28.462-1.288 1.036-2.359 2.288-5.228 1.743 0.97 1.547 5.356-0.322 6.39 1.161 0.238 2.756-3.584 1.45-4.647 2.904-0.657 1.667-2.491 2.156-4.647 2.324-2.732 0.408-1.752-2.896-2.904-4.066-2.077-0.739-1.529-1.895-1.162-4.066 0.895-0.91 2.627-0.64 2.355 1.17zm146.38-105.72c-2.591-6.5-8.59-11.527-12.198-15.683-10.72-7.059-21.08-13.062-32.528-18.588-13.824-6.672-30.909-11.017-42.984-18.587-14.833-9.3-27.874-22.884-49.373-22.654-0.583-0.001-0.691 0.471-1.162 0.581-0.227 0.829-0.697 0.979 0 1.743 5.325 1.566 10.358 0.47 16.845 2.323 9.418 2.691 21.025 12.307 29.043 17.426 3.274 2.091 6.2 4.725 9.294 6.39 5.131 2.762 10.917 3.78 16.264 5.809 4.763 1.807 9.46 4.841 14.522 6.97 2.512 1.057 5.159 1.854 7.551 2.904 18.534 8.14 35.693 17.823 43.564 34.271 1.063 1.261-0.109 4.757 1.162 5.809 2.64-2.5 1.11-5.98 0.02-8.72zm-94.68-34.269c-2.216 6.498-4.309 13.118-6.97 19.168-9.49-8.711-14.608-21.792-23.815-30.786 1.578 15.385 0.873 26.38 3.485 40.08 3.836-0.754 6.331-2.548 9.875-1.162-4.656 0.832-9.188 4.663-14.521 2.904 2.48-3.693 0.287-8.191 0-12.198-0.23-3.216 0.273-6.514 0-9.293-0.322-3.278-1.722-7.946-1.743-11.037-0.005-0.824 1.052-1.249 1.162-2.323 0.027-0.266-0.805 0.26-0.581-0.581 0.908-3.402-0.393-6.581 0.581-9.875-4.964-6.736-10.137-14.753-13.941-20.911-0.104 29.756 2.222 52.585-0.581 84.806 3.743 0.004 2.422-2.146 4.066-3.485 3.277-0.015 4.802-1.78 8.713-1.161-0.087-3.268 0.766-7.808 1.743-11.618 7.716-1.106 13.072-4.499 20.911-4.066 1.547 4.586-3.876 7.944-1.743 9.294 4.68-11.95 10.93-25.44 13.36-37.739zm2.32-3.485c0.197-1.952 3.705-4.73 1.162-5.809-0.15 1.816-2.11 4.82-1.16 5.809zm-9.87 40.664c3.633-0.046 5.324-2.034 8.713-2.323 0.272-4.338-3.102-5.03-3.485-8.713h-1.742c-0.56 4.27-3.03 6.64-3.48 11.03zm-11.04-1.16c-0.098-1.26 2.061-0.263 2.904-0.581 0.772-1.226-0.286-1.717 0.581-3.485-2.16-1.6-5.26 1.92-3.48 4.06zm-8.714 1.16c0.939 0.948 2.43-0.519 4.647 0-0.48-1.642 0.819-1.505 0.581-2.904-1.99-1.28-6.122-0.56-5.224 2.9zm36.014-1.75c14.188 2.47 31.097 4.735 45.888 6.389 6.787 0.76 13.281 1.47 19.169 2.324 3.071 0.445 5.906 2.634 8.713 0.58-16.412-2.778-35.915-4.152-54.602-6.97-6.724-1.014-13.595-3.677-19.168-3.485-6.49 0.223-12.028 4.083-17.426 5.809 6.9-1.49 11.47-3.23 17.43-4.64zm-27.88 5.81c1.476-1.042 3.099-1.936 3.485-4.066-0.123-0.651-0.645-0.904-1.162-1.162-0.76 1.4-4.16 3.17-2.32 5.23zm-7.553 1.74c1.358-0.191 2.4-0.698 3.485-1.162 0.48-1.642-0.819-1.504-0.581-2.904h-2.904c-0.828 0.77-0.828 3.29 0.001 4.06zm8.133 0h3.485c-0.556-1.082 1.74-1.941 0-2.323-0.16 1.77-3.07 0.8-3.48 2.32zm28.46-0.58c-1.33-0.635-4.807-2.124-6.389-0.581 1.68 0.29 5.54 1.4 6.39 0.58zm1.74 0.58c14.25 2.596 29.285 4.405 43.564 6.971 0.1-0.869-0.207-2.144 0.581-2.324 1.019 0.531 2.898 0.2 3.485 1.162-1.029 0.133-2.909-0.585-2.323 1.162 4.579 0.535 7.206 0.922 12.197 1.742-1.015-3.245-7.766-0.753-9.293-3.485 6.657 0.894 13.907 1.195 19.168 3.485-0.913 0.056-2.014-0.078-1.742 1.162 1.347-0.186 2.229 0.093 2.904 0.581-1.921-2.848 1.463-1.406 1.742-3.485-21.183-2.053-42.628-6.938-62.733-8.133 10.935 3.006 24.56 3.322 35.432 6.39-13.9-0.36-28.75-5.44-42.98-5.22zm-38.333 2.33c2.827-0.464 5.566-1.017 7.551-2.323-1.48-0.27-5.9 0.89-7.553 2.32zm32.533-1.74c-1.165-0.424-4.709-1.435-5.228-0.581 1.2 0.38 3.97 2.17 5.23 0.58zm-25.56 6.39c-3.232-0.521-4.568 0.854-5.228 2.904 1.952-0.016 3.073 0.8 4.066 1.742-2.212 0.637-3.626-1.536-4.066 0.581 1.488 0.062 2.769 0.329 3.485 1.162-9.815-0.745-17.097-2.444-29.043-2.904-1.657-1.939-2.373-1.209-5.809-1.162 0.998 3.097 5.301 1.802 7.551 2.323 5.873 1.36 13.089 3.348 19.75 4.066 4.728 0.51 12.801 1.19 18.006 1.161 13.264-0.074 26.744-3.394 40.08-2.904 11.992 0.44 23.118 2.967 34.852 1.743-8.909-0.569-17.044-3.911-25.558-2.904 0.903-2.065-1.973-0.351-1.743-1.743 2.157-1.17 3.991 0.928 5.81-0.58-4.679-0.363-11.116-2.042-14.522-1.743 1.918 1.567 6.633 0.338 8.133 2.323-9.887-1.343-19.9-2.56-29.043-4.646-0.182 2.312 3.375 0.884 4.066 2.323-3.581 0.66-7.071-1.813-9.293-0.581 3.574 2.042 9.674 1.557 12.779 4.066-4.827 0.094-9.12-3.155-13.36-1.742-0.889 2.631 3.793-0.309 2.904 2.323-2.283-1.009-5.514-1.07-8.132-1.743v-2.323c-2.31 0.181-2.918-1.342-5.228-1.162 0.062 2.455 3.252 1.782 4.647 2.905-1-0.031-1.489 0.446-1.743 1.161 0.938 0.806 2.994 0.491 3.485 1.743-2.932 0.414-4.241-0.794-6.39-1.162-0.848 0.701-0.559 2.539-2.904 1.742-1.507-1.314 1.826-1.271 0-2.904h-2.323c-2.045 1.284 2.467 1.454 0.581 2.324-1.688-1.4-3.675 2.157-5.809 0 0.373-4.668 4.263-8.896 3.485-12.779-0.62 2.68-1.44 5.14-3.5 6.38zm14.52-5.23c3.422-1.135 6.272 2.635 7.551 0-2.26-0.03-6.43-2.48-7.55 0zm20.33 1.16c-0.014-3.084-5.071-1.125-6.971-2.323 0.49 2.6 4.59 1.6 6.97 2.32zm80.16-1.16v1.162c1.43 0.903 1.709-1.973 0.581-1.742-0.03 0.35-0.09 0.69-0.58 0.58zm-97.01 1.16c-3.018 0.308-4.655-0.766-6.97-1.162 0.23 1.92 7.63 2.15 6.97 1.16zm84.81 0h1.161v-1.162h-1.161v1.16zm-76.67 0.58c0.93-1.618-2.509-1.606-2.324-0.581 1.09-0.13 1.27 0.65 2.32 0.58zm34.27 4.07c0.221 1.438-5.518-0.17-3.485 1.162 4.32-0.052 9.071 2.535 12.779 1.162-3.181-0.498-6.752-0.606-8.713-2.324 3.336-0.134 5.499 1.341 8.713 0-11.054-1.146-22.714-4.778-33.109-4.646 8.31 1.89 14.83 2.87 23.82 4.65zm44.72-4.65c3.48 1.79 2.85-2.15 0 0zm-97.58 2.32c1.207 0.381 3.974 2.17 5.228 0.581-0.709-0.065-1.375-0.174-1.162-1.162 2.495-0.718 4.277 2.263 5.809 0.581-2.316-1.556-6.925-0.819-9.293-2.323 1.32 2.31 1.92 0.88-0.59 2.32zm103.97-0.58c0.407-1.442-2.483-2.46-2.904-1.161 1.1 0.25 1.46 1.25 2.9 1.16zm-86.55 0c0.06-0.7-0.84-0.35 0 0zm30.21 2.91c-6.932-0.815-15.119-3.464-21.492-2.904 6.46 1.28 14.55 4.02 21.49 2.9zm-81.902 0c2.511 0.954 6.544-1.054 8.713-2.323-3.577 0.1-5.95 1.4-8.713 2.32zm50.532-1.16c-0.671-0.595-1.493-0.778-4.066-1.162 1.1 2.22 4.4 1.45 4.07 1.16zm-15.68 1.74c0.105-1.267-0.476-1.848-1.743-1.742-0.11 1.26 0.47 1.84 1.74 1.74zm11.62 0c0.175-2.111-3.097-0.775-4.066-1.742-0.17 2.11 3.1 0.77 4.07 1.74zm-30.208 0.58c1.432-0.076 2.799-0.088 3.485 0.581-0.161-1.93-2.958-1.96-3.485-0.58zm54.018-1.16c-1.021 0.335-3.413-0.701-3.485 0.581 1.02-0.34 3.41 0.7 3.48-0.58zm34.27 2.32c-0.407-2.497-4.825-0.983-6.39-2.324 0.13 2.77 4.23 1.58 6.39 2.32zm16.85-0.58c0.176-2.111-3.097-0.775-4.065-1.743-0.39 2.31 2.2 1.66 4.06 1.74zm8.71 1.74h4.647c0.565-2.308-3.246-0.238-2.904-2.323 2.258 0.338 4.534 2.051 5.228-0.581-1.872-0.838-4.872-0.549-7.551-0.581 0.86 1.76-0.2 2.26 0.57 3.48zm-83.64 0c0.271-1.82-1.46-1.637-2.324-2.323-0.75 2.29 1.58 1.51 2.32 2.32zm-8.13-0.58c-1.256-0.487-1.981-1.504-4.066-1.162-0.4 1.8 3.33 2.42 4.07 1.16zm72.6-0.58c-6.08-1.98-4.84 2.15 0 0zm2.33 1.16c0.079 0.957 3.987 0.957 4.066 0-0.93-0.16-4.62-2.03-4.07 0zm5.8 1.16c1.817 0.118 4.265-0.392 5.228 0.581 0.87-2.36-5.42-2.63-5.23-0.58zm-9.87-0.58c-0.869 0.1-2.145-0.207-2.324 0.581 0.86-0.1 2.14 0.21 2.32-0.58zm22.07 1.75c-0.245-2.078-3.013-1.635-5.228-1.743-0.36 2.69 3.18 1.46 5.23 1.74zm-17.42-0.59c-0.356-0.17-2.236-1.445-2.323 0 0.35 0.17 2.23 1.45 2.32 0zm5.22 0.59c-1.082 0.555-1.941-1.74-2.323 0 0.36 0.16 2.24 1.44 2.32 0zm6.97 0.58c-1.87 0.128-2.458-1.027-4.647-0.58 0.39 1.84 4.22 1.95 4.65 0.58zm-5.8 1.16c-3.154 0.047-7.784-1.42-11.036-0.581 3.14 0.26 9.28 2.69 11.04 0.58zm-113.85 24.39c-2.445 0.896-0.092-3.006-1.743-2.904 0.177 3.357-2.375 0.964-2.904 2.904 8.338 2.913 15.86 3.477 24.977 1.742-0.087-2.259-0.422-7.293-1.162-6.971-0.672 1.964 0.411 2.479-0.581 3.485-1.142 0.174-1.152-0.784-1.742-1.161-0.012 1.73 0.054 3.539-1.743 3.484 0.29-2.891-0.12-3.459 0.581-5.228-0.745-0.997-3.473-0.012-3.485-1.742 1.284-3.034-0.301-11.214 2.904-13.94 0.385 4.338-1.591 9.617 0 14.521 1.036-1.85-0.23-10.287 2.904-6.39 0.008-2.525-2.092-2.957-2.324-5.228-0.159-1.558 0.974-2.401 0.581-4.647-1.934 1.334-1.888 0.866-4.066 0 0.485 4.585-0.406 9.338-0.581 13.36-0.155 3.547 1.234 7.639-1.162 9.874-1.167-0.647-0.666-4.492 0-5.228-2.185-0.442-0.401 3.084-2.904 2.323 0.155-7.016-0.025-11.715 1.162-16.845 2.701 0.284-1.18 4.141 1.743 4.646-0.267-2.83 0.608-6.804-0.581-8.713-4.377 0.505-6.579-1.165-9.875-1.742-0.147 10.18 0.384 17.42-0.009 24.4zm127.21-24.39c-1.93 4.38 1.54 2.84 0 0zm-130.7 4.06c-0.006-0.853 0.219-4.754-0.581-2.904 0.006 0.85-0.219 4.75 0.581 2.9zm128.37 18.59c0.174-4.025 1.373-15.189 0-22.072 0.31 8.22-1.45 13.25 0 22.07zm-2.32-16.84c-0.119-1.098 0.392-5.739-0.581-4.066 0.12 1.1-0.39 5.74 0.58 4.07zm-41.82-2.91c0.033 0.354 0.087 0.688 0.581 0.581 0.567-1.925 1.148 0.648 1.742 0.581-0.13-1.099 0.655-1.282 0.581-2.324h-2.904v1.16zm4.64 2.33c1.649 0.021 2.177-3.61 0.58-3.485-0.66 0.68-0.65 2.04-0.58 3.48zm2.33 20.91c-3.652-0.927-1.123-5.171-1.162-7.551-0.071-4.312-1.145-8.926 0-12.779-2.126 1.786-1.161 6.109-1.161 9.875 0 3.727 0.427 7.891-0.581 10.455-2.509-0.077-3.829-0.738-5.809 0.581 6.541 1.396 14.688 1.189 22.653 1.161 0.858-6.671 1.118-12.535 1.162-16.845 0.024-2.437 1.369-6.713-1.743-8.132-0.771 4.511-0.686 10.684-1.161 16.264-0.215 2.512 1.394 6.773-1.743 7.552-0.508-7.714 1.157-14.561 0.581-23.815-2.858-0.922-0.871 3.001-3.485 2.323 0.114-1.663 0.072-3.17-1.742-2.904-2.679 0.71 0.867 4.242-2.323 4.647-0.479-1.458 1.129-5.002-1.162-4.647h-1.162c-0.34 8.91 0.29 15.66-1.18 23.81zm27.88-0.59c3.138-2.778 1.157-6.721 1.162-9.874 0.005-3.826 1.024-7.646 1.161-12.779-0.128-0.452-0.486-0.676-1.161-0.581-0.85 8.54-0.88 14.32-1.16 23.23zm3.48-1.16c0.641-7.359 1.438-16.405 0.581-22.073-0.66 5.9-1.16 18.07-0.58 22.07zm-14.52-19.75c0.213 3.913-0.398 7.159-0.581 11.037-0.209 4.447-1.769 10.958 1.743 11.036 1.348-4.801 0.583-10.793 0.58-14.521-0.001-2.905 1.872-7.12-0.58-9.294h-1.162v1.73zm4.65 22.08c2.274-3.409 0.886-9.707 1.162-14.521 0.23-4.014 1.602-7.139 0.581-9.294h-1.743c-0.47 5.47-1.62 19.65 0 23.81zm2.9-0.58c3.06-2.649 1.562-7.06 1.743-11.036 0.157-3.448 1.049-7.703 0.581-11.617-0.129-0.453-0.486-0.676-1.162-0.581-1.19 7.85-1.32 16.15-1.16 23.24zm-91.77-20.33c0.093-0.404-0.203-3.381-0.581-1.742-0.51 2.2 0.31 2.9 0.58 1.74zm2.32 19.16c-0.029-6.738 2.141-17.548 0-21.491 0.77 7.56-1.31 15.34 0 21.49zm105.14-20.33c-0.631-0.226-1.395-0.697-0.581 0-0.68 3.16 0.7 3.16 0.58 0zm-131.28 5.81c-0.158-1.243 0.449-6.196-0.581-4.646 0.158 1.25-0.449 6.2 0.581 4.65zm23.818 2.91c-0.214-1.562 0.533-7.07-0.581-5.809 0.21 1.56-0.54 7.07 0.58 5.81zm62.73-0.58c-0.188-1.399 0.496-6.64-0.58-5.229 0.19 1.4-0.5 6.64 0.58 5.23zm38.92 1.16c-0.144 3.163-2.101 7.451 0.581 9.875-0.958-5.571 1.298-12.053-0.581-16.845-0.58 2.11 0.12 4.37 0 6.97zm-112.11-0.58c1.676-3.37-1.434-1.53 0 0zm-13.36 1.74c-0.006-0.852 0.219-4.754-0.581-2.904 0.006 0.85-0.219 4.75 0.581 2.9zm13.36 3.49c0.43-1.357 0.403-3.273-0.581-4.647 0.354 1.39-0.729 4.21 0.581 4.65zm9.878-0.58c-0.812-1.67 1.583-2.951 0-3.485-0.46 0.39-1.3 3.23 0 3.48zm63.31 1.74c0.094-0.404-0.202-3.38-0.58-1.742-0.51 2.2 0.31 2.9 0.58 1.74zm34.85 32.52c0.184 0.936 0.827-0.044 0.581-1.161v-5.809c0.421-5.394 1.771-12.938 0.581-18.007-0.63 6.51-1.57 14.86-1.16 24.98zm-77.25-2.9c5.314-2.431 8.406-7.084 12.198-11.036-1.379-2.493 0.27-8.015-1.162-10.456h-10.456c-1.04 6.88 0.1 12.76-0.58 21.5zm-6.97 9.3c0.645-6.843 0.804-23.294 0.581-30.205h-1.743c0.36 6.31-1.14 23.64 1.16 30.2zm2.9-3.49c1.704-7.203-0.542-18.354 1.162-25.558-0.768-0.007-0.531-1.019-1.162-1.162-0.95 7.57-0.98 19.15 0 26.72zm22.07-22.65c0.544-0.491 1.241-3.703 0-4.066 0.49 1.52-1.75 3.19 0 4.07zm5.81-3.49c-1.591 3.094-0.515 5.561-1.743 9.294 4.436-2.342 8.141-5.413 11.036-9.294-3.86 0.34-6.14-1.2-9.3 0zm-98.744 0.58c1.957 1.77 1.761-2.15 0 0zm63.314 16.85c-1.679-5.509 1.515-12.544-1.162-17.426 0.42 4.96-1.4 12.69 1.16 17.43zm1.74-10.46c-0.235-1.73 0.562-7.494-0.581-6.39 0.24 1.73-0.56 7.5 0.58 6.39zm-55.179-4.65c0.63-2.595-4.864-2.067-5.809-1.161 1.533 0.79 3.961 0.69 5.809 1.16zm-1.162 2.33c-1.517 0.481-3.187-1.757-4.066 0 1.038 0 3.38 1.56 4.066 0zm84.221 7.55c-0.817-2.612 1.759-5.164-0.581-5.809 0.15 2.84-0.97 3.94 0.58 5.81zm-103.97 1.16c2.242 0.875 1.301-6.687 0-4.066 1.756 0.88-0.481 2.55 0 4.07zm40.66 25.56c0.553-9.896 3.06-21.412 2.324-30.205-1.019 10.54-2.735 20.03-2.324 30.21zm57.51-19.17c0.229-3.013 1.409-5.003-1.162-6.389-3.264 5.835-11.321 6.879-11.037 16.264 3.48-1.55 7.66-7.43 12.2-9.87zm-97.589-5.23c-0.041 0.007 0.036 0.54 0 0.581-2.758 3.16 2.789-1.07 0-0.58zm75.509 18.01c0.456-4.812 0.582-11.315-0.581-15.684 0.58 5.39-1.08 12.84 0.58 15.68zm-55.76-13.36c1.694 0.854 1.694-2.597 0-1.743v1.74zm81.32 8.71c1.992-1.203 2.042-9.272 1.162-9.875 0.42 4.09-1.3 6.05-1.16 9.87zm-80.158-4.65c-0.009-1.54 0.322-3.42-1.162-3.485 0.352 1.2-0.937 4.04 1.162 3.48zm52.278 0.59c0.158-0.791-0.36-2.268-0.581-1.162-0.16 0.79 0.36 2.26 0.58 1.16zm-73.77-1.17c-1.44 3.83 1.94 2.64 0 0zm20.33 2.91h1.162v-1.161h-1.162v1.16zm61.57 11.03c-1.158-2.717 1.576-4.94-0.581-6.971-0.06 2.79-0.96 7.04 0.58 6.97zm-2.32-1.16c-0.352-1.197 0.938-4.035-1.162-3.485-0.47 1.42-1 3.35 1.16 3.48zm-58.669-0.58c-0.271-1.11 1.791-2.5-0.581-2.323 0.099 0.87-0.207 2.14 0.581 2.32zm54.019 4.07c1 0.031 1.489-0.447 1.743-1.162-1-0.03-1.49 0.44-1.74 1.16zm-1.74-0.58c-0.61 3.37 2.52 0.24 0 0zm90.61 5.23c-0.607-0.609-0.368-4.979-1.161-3.485-0.93 2.13 2.3 4.83 1.16 3.48zm-124.3-1.17c-0.984 5.03 2.753 0.89 0 0z"/>
	<path d="m145.84 142.32c2.698-0.896 10.446 0.041 16.264 1.162-5.3 1.58-10.42-0.44-16.26-1.16z"/>
</g>
</svg>
