<?xml version="1.0" encoding="UTF-8" standalone="no"?>
<!-- Created with Inkscape (http://www.inkscape.org/) -->
<svg
   xmlns:dc="http://purl.org/dc/elements/1.1/"
   xmlns:cc="http://creativecommons.org/ns#"
   xmlns:rdf="http://www.w3.org/1999/02/22-rdf-syntax-ns#"
   xmlns:svg="http://www.w3.org/2000/svg"
   xmlns="http://www.w3.org/2000/svg"
   xmlns:sodipodi="http://sodipodi.sourceforge.net/DTD/sodipodi-0.dtd"
   xmlns:inkscape="http://www.inkscape.org/namespaces/inkscape"
   width="132.4662mm"
   height="143.96272mm"
   viewBox="0 0 469.36843 510.10413"
   id="svg4846"
   version="1.1"
   inkscape:version="0.91 r13725"
   sodipodi:docname="piano.svg">
  <defs
     id="defs4848" />
  <sodipodi:namedview
     id="base"
     pagecolor="#ffffff"
     bordercolor="#666666"
     borderopacity="1.0"
     inkscape:pageopacity="0.0"
     inkscape:pageshadow="2"
     inkscape:zoom="0.98994949"
     inkscape:cx="220.74276"
     inkscape:cy="243.39163"
     inkscape:document-units="px"
     inkscape:current-layer="layer1"
     showgrid="false"
     fit-margin-top="0"
     fit-margin-left="0"
     fit-margin-right="0"
     fit-margin-bottom="0"
     inkscape:window-width="1920"
     inkscape:window-height="1017"
     inkscape:window-x="1912"
     inkscape:window-y="-8"
     inkscape:window-maximized="1" />
  <metadata
     id="metadata4851">
    <rdf:RDF>
      <cc:Work
         rdf:about="">
        <dc:format>image/svg+xml</dc:format>
        <dc:type
           rdf:resource="http://purl.org/dc/dcmitype/StillImage" />
        <dc:title></dc:title>
      </cc:Work>
    </rdf:RDF>
  </metadata>
  <g
     inkscape:label="Calque 1"
     inkscape:groupmode="layer"
     id="layer1"
     transform="translate(-5.4497551,-17.403553)">
    <path
       style="fill:#000000;fill-rule:evenodd;stroke:#000000;stroke-width:1.71774244px;stroke-linecap:round;stroke-linejoin:round;stroke-opacity:1"
       d="m 23.972134,265.80139 -1.073589,1.9938 c 39.881102,18.9759 81.072945,37.48982 117.634695,57.82045 18.67313,10.38344 22.58845,21.74365 22.69873,33.588 l 2.60729,2.45391 2.60729,-16.10383 c 0.11011,-15.0617 -12.7829,-20.70897 -23.92571,-26.99309 C 107.97733,297.95146 65.067267,282.72436 23.972134,265.80139 Z"
       id="path5405"
       inkscape:connector-curvature="0"
       sodipodi:nodetypes="ccscccsc" />
    <path
       style="fill:#000000;fill-rule:evenodd;stroke:#000000;stroke-width:1.71774244px;stroke-linecap:round;stroke-linejoin:round;stroke-opacity:1"
       d="m 67.069073,257.0593 -1.226966,1.84044 134.045263,51.07218 9.50893,-5.82806 z"
       id="path5407"
       inkscape:connector-curvature="0" />
    <path
       style="fill:#000000;fill-rule:evenodd;stroke:#000000;stroke-width:1.71774244px;stroke-linecap:round;stroke-linejoin:round;stroke-opacity:1"
       d="m 236.3894,276.69066 -7.82186,6.74827 -136.652559,-41.71661 9.355559,-1.53369 z"
       id="path5409"
       inkscape:connector-curvature="0" />
    <path
       style="fill:#000000;fill-rule:evenodd;stroke:#000000;stroke-width:1.71774244px;stroke-linecap:round;stroke-linejoin:round;stroke-opacity:1"
       d="m 8.1750353,263.34747 2.9140297,0.1534 c -0.249691,4.70335 0.265134,8.91367 1.380326,14.11003 2.200481,10.25328 6.926557,15.14094 14.110036,18.86449 l 133.738513,69.32319 0.61349,8.43534 L 27.653016,306.90454 C 12.411658,299.20494 5.0517844,285.2104 6.4879717,275.15699 Z"
       id="path5411"
       inkscape:connector-curvature="0"
       sodipodi:nodetypes="ccssccssc" />
    <path
       style="fill:#000000;fill-rule:evenodd;stroke:#000000;stroke-width:1.71774244px;stroke-linecap:round;stroke-linejoin:round;stroke-opacity:1"
       d="m 52.498941,335.12456 1.687063,-0.46009 c 11.91677,25.67186 19.929867,55.30902 21.612396,91.14762 0.108733,2.31419 2.242169,4.62715 3.578813,6.94073 l -1.626737,1.30137 -8.675904,-0.21689 C 68.440793,399.17214 63.353493,366.11025 52.498941,335.12456 Z"
       id="path5413"
       inkscape:connector-curvature="0"
       sodipodi:nodetypes="ccscccc" />
    <path
       style="fill:#000000;fill-rule:evenodd;stroke:#000000;stroke-width:1.71774244px;stroke-linecap:round;stroke-linejoin:round;stroke-opacity:1"
       d="m 81.437748,348.81339 c 3.627443,-3.59228 7.701,-2.50048 12.14626,2.49432 l -1.735177,81.11975 c -3.967883,-2.01955 -7.719741,-2.09484 -11.27868,-0.43378 z"
       id="path5415"
       inkscape:connector-curvature="0"
       sodipodi:nodetypes="ccccc" />
    <circle
       style="opacity:1;fill:#000000;fill-opacity:1;fill-rule:nonzero;stroke:#000000;stroke-width:2.00599766;stroke-linecap:round;stroke-linejoin:round;stroke-miterlimit:4;stroke-dasharray:none;stroke-dashoffset:0;stroke-opacity:1"
       id="path5417"
       cx="85.279976"
       cy="443.64426"
       r="7.5355392" />
    <path
       style="fill:#000000;fill-rule:evenodd;stroke:#000000;stroke-width:1.71774244px;stroke-linecap:round;stroke-linejoin:round;stroke-opacity:1"
       d="m 206.13533,380.68964 0,2.16898 c 7.56805,5.21053 11.88424,13.41141 12.58006,25.16015 l 5.63935,95.2181 20.17148,-0.2169 0.2169,4.98865 1.51828,-0.21689 -0.43378,-5.42245 2.38588,-0.2169 -0.2169,-2.16898 -11.92938,-3.47035 c -1.91463,-0.55698 -3.10972,-0.94377 -3.25347,-4.55486 l -3.47036,-87.17297 c -0.63292,-15.89838 -13.16291,-22.83204 -23.20806,-24.09558 z"
       id="path5419"
       inkscape:connector-curvature="0"
       sodipodi:nodetypes="ccscccccccsssc" />
    <path
       style="fill:#000000;fill-rule:evenodd;stroke:#000000;stroke-width:1.71774244px;stroke-linecap:round;stroke-linejoin:round;stroke-opacity:1"
       d="m 254.19679,368.00884 2.16897,-0.6507 5.63935,9.9773 c 1.59336,2.81902 4.52394,1.43711 6.72383,-1.73518 8.44497,-12.17776 19.40319,-22.30238 39.25849,-24.72634 l 0.86758,2.81966 c -57.07282,48.45748 -43.00848,83.72018 -54.00752,123.63172 z"
       id="path5421"
       inkscape:connector-curvature="0"
       sodipodi:nodetypes="ccsscccc" />
    <path
       style="fill:#000000;fill-rule:evenodd;stroke:#000000;stroke-width:1.71774244px;stroke-linecap:round;stroke-linejoin:round;stroke-opacity:1"
       d="m 201.05684,375.16646 145.32148,-49.23579 c 24.89816,-8.43564 23.87593,-24.80389 30.79948,-37.95709 -2.2555,9.84753 -0.19264,13.13539 -8.2049,26.56226 -6.41295,10.74678 -18.694,19.14343 -37.21657,24.54666 l -131.13328,38.25294 z"
       id="path5423"
       inkscape:connector-curvature="0"
       sodipodi:nodetypes="cscsscc" />
    <path
       style="fill:#000000;fill-rule:evenodd;stroke:#000000;stroke-width:1.71774244px;stroke-linecap:round;stroke-linejoin:round;stroke-opacity:1"
       d="m 196.28509,339.37833 c 69.07362,-40.68203 96.42357,-31.20248 159.20293,-51.40475 2.09256,-0.56071 2.95693,0.65413 1.0845,1.73518 -56.20383,18.66256 -108.48059,34.34442 -160.28743,49.66957 z"
       id="path5425"
       inkscape:connector-curvature="0"
       sodipodi:nodetypes="cccc" />
    <path
       style="fill:#000000;fill-rule:evenodd;stroke:#000000;stroke-width:1.71774244px;stroke-linecap:round;stroke-linejoin:round;stroke-opacity:1"
       d="m 173.94462,377.33544 c 2.54682,-18.40365 -1.47381,-38.27795 27.32912,-52.27235 19.96118,-9.69847 39.0199,-19.63745 53.13995,-34.48675 39.78204,8.2694 80.70144,-0.52161 122.11342,-16.70111 l -0.65069,-2.16898 c -37.83429,8.61872 -75.86232,16.72889 -116.90788,16.91801 l -4.77175,-0.2169 c 4.09123,-19.32835 1.86995,-39.05124 -0.4338,-58.77927 l -3.03657,1.08448 c -1.53048,26.97276 -5.92833,53.06907 -28.80115,68.10137 -18.97595,12.47124 -39.60735,25.49553 -47.83817,43.43219 -2.27537,19.63061 -1.34267,26.6577 -0.14257,35.08931 z"
       id="path5427"
       inkscape:connector-curvature="0"
       sodipodi:nodetypes="cscccccccscc" />
    <path
       style="fill:#000000;fill-rule:evenodd;stroke:#000000;stroke-width:1.71774244px;stroke-linecap:round;stroke-linejoin:round;stroke-opacity:1"
       d="m 72.130281,199.39225 3.680864,0 c -0.966196,31.19119 -5.628441,58.90661 -55.519875,61.65467 l 0,-3.37413 c 42.72022,-2.97145 51.198774,-28.09101 51.839011,-58.28054 z"
       id="path5429"
       inkscape:connector-curvature="0"
       sodipodi:nodetypes="ccccc" />
    <path
       style="fill:#000000;fill-rule:evenodd;stroke:#000000;stroke-width:1.71774244px;stroke-linecap:round;stroke-linejoin:round;stroke-opacity:1"
       d="m 108.32557,197.55181 0,2.14717 130.97786,7.36175 c 5.15678,0.28983 8.36278,6.00533 11.96284,11.04263 l 0,-18.09764 -136.19243,-3.68088 c -1.67133,-0.0452 -3.41927,0.55119 -6.74827,1.22697 z"
       id="path5431"
       inkscape:connector-curvature="0"
       sodipodi:nodetypes="ccsccsc" />
    <path
       style="fill:#000000;fill-rule:evenodd;stroke:#000000;stroke-width:1.71774244px;stroke-linecap:round;stroke-linejoin:round;stroke-opacity:1"
       d="m 163.23197,173.62611 c 4.3597,-1.5706 9.14368,-2.66133 14.72351,-3.06741 l 56.90021,-4.14098 c 8.67174,-0.6311 18.82303,11.98847 11.80948,18.86449 l -15.64372,15.33699 -11.34938,-0.30674 18.40439,-22.69875 c 0.87377,-1.07764 -0.17212,-2.48188 -3.37414,-2.45391 l -70.24338,0.61349 z"
       id="path5433"
       inkscape:connector-curvature="0"
       sodipodi:nodetypes="csssccsscc" />
    <path
       style="fill:#000000;fill-rule:evenodd;stroke:#000000;stroke-width:1.71774244px;stroke-linecap:round;stroke-linejoin:round;stroke-opacity:1"
       d="M 153.72305,159.51607 258.93477,25.777565 274.57849,35.899963 156.17696,161.04978 Z"
       id="path5435"
       inkscape:connector-curvature="0" />
    <path
       style="fill:#000000;fill-rule:evenodd;stroke:#000000;stroke-width:1.71774244px;stroke-linecap:round;stroke-linejoin:round;stroke-opacity:1"
       d="m 269.05717,24.243861 c 2.87979,2.688645 3.63472,4.432892 9.81568,8.588712 3.862,-1.793701 7.10076,-1.996016 10.12241,-2.453915 40.23528,-6.097161 42.10403,-4.496517 47.54466,-3.374144 l 3.06739,-1.840441 c -5.17273,-3.629195 -7.02092,-6.36963 -28.06668,-6.901649 l -41.2565,3.834259 z"
       id="path5437"
       inkscape:connector-curvature="0"
       sodipodi:nodetypes="ccsccccc" />
    <path
       style="fill:#000000;fill-rule:evenodd;stroke:#000000;stroke-width:1.71774244px;stroke-linecap:round;stroke-linejoin:round;stroke-opacity:1"
       d="m 327.9512,55.224566 1.84044,0.920229 -3.68088,11.962839 c -2.83721,9.220945 4.12485,9.201466 10.42916,8.74209 22.7966,-1.661143 52.31884,-7.639763 72.97719,-4.120813 17.55857,2.990934 30.39002,13.480912 21.65202,32.954359 -14.87843,33.15791 -24.46081,46.07483 -38.49585,73.15741 l -0.92021,-1.53371 c 11.49022,-24.07228 25.18357,-45.80349 34.35485,-72.39055 7.3735,-21.375419 -18.16635,-18.202234 -31.5942,-17.484166 l -57.36033,3.06739 C 317.92634,89.826616 314.6202,79.22038 321.81641,66.267211 Z"
       id="path5439"
       inkscape:connector-curvature="0"
       sodipodi:nodetypes="ccssssccsscsc" />
    <path
       style="fill:#000000;fill-rule:evenodd;stroke:#000000;stroke-width:1.71774244px;stroke-linecap:round;stroke-linejoin:round;stroke-opacity:1"
       d="m 277.36094,95.893905 13.7193,1.264173 c 2.89366,0.266628 6.0608,-0.01031 7.84084,2.30655 19.71809,33.367922 37.4646,67.619492 57.68078,100.937672 l -4.99447,0.14566 -56.47733,-92.56415 -4.29436,1.22696 58.58728,91.71516 -8.58871,0.30674 -63.74284,-99.10774 c -2.32792,-3.619472 -3.58919,-6.450861 0.26951,-6.231025 z"
       id="path5441"
       inkscape:connector-curvature="0"
       sodipodi:nodetypes="sscccccccss" />
    <path
       style="fill:#000000;fill-rule:evenodd;stroke:#000000;stroke-width:1.71774244px;stroke-linecap:round;stroke-linejoin:round;stroke-opacity:1"
       d="m 258.01454,215.64944 9.2022,-11.6561 105.66997,-4.09606 c 8.24437,-0.31959 25.01689,1.88593 21.62701,15.44542 l -8.89545,35.58182 -2.76065,0.30674 -1.84044,-33.74138 c -2.16133,-3.24821 -3.26258,-6.50352 -10.12241,-6.74827 -36.95412,-1.31847 -75.19655,2.96826 -112.88023,4.90783 z"
       id="path5443"
       inkscape:connector-curvature="0"
       sodipodi:nodetypes="ccsscccsc" />
    <path
       style="fill:#000000;fill-rule:evenodd;stroke:#000000;stroke-width:1.71774244px;stroke-linecap:round;stroke-linejoin:round;stroke-opacity:1"
       d="m 396.35417,200.92593 0.61347,11.04263 59.81425,-0.92021 c 6.22082,-0.0957 8.32712,0.23227 8.28197,5.52132 -0.18197,21.32435 -3.06782,29.50869 -9.81567,31.59418 -20.81083,6.43178 -41.9211,8.10869 -62.88164,11.34938 l 0.61347,1.22695 c 18.87602,-0.99998 36.98286,-0.76932 58.5873,-6.1348 13.59624,-3.37663 22.39199,-9.56966 22.39199,-23.00546 l 0,-33.1279 z"
       id="path5445"
       inkscape:connector-curvature="0"
       sodipodi:nodetypes="ccsssccsscc" />
    <circle
       r="10.476637"
       cy="516.84595"
       cx="245.75803"
       id="circle5447"
       style="opacity:1;fill:#000000;fill-opacity:1;fill-rule:nonzero;stroke:#000000;stroke-width:0.37017339;stroke-linecap:round;stroke-linejoin:round;stroke-miterlimit:4;stroke-dasharray:none;stroke-dashoffset:0;stroke-opacity:1" />
    <path
       sodipodi:nodetypes="sccccccccsssss"
       inkscape:connector-curvature="0"
       id="path5449"
       d="m 392.69189,264.78811 c -11.9602,-1.40073 -11.71102,21.39235 -11.71102,39.86004 l 2.64084,76.49003"/>
 </g>      
 </svg>
